<?xml version="1.0" encoding="UTF-8"?>
<svg enable-background="new 213.765 497 1573.235 1569.047" version="1.1" viewBox="213.765 497 1573.235 1569.047" xmlns="http://www.w3.org/2000/svg">
 <path d="m980 621.86c20.68-3.27 41.71-0.81 62.18 2.79 22.2 4.03 43.93 10.6 64.67 19.49 16.27 6.96 31.77 15.62 48.28 22.02 13.19 5.22 26.84 10.55 37.42 20.32 6.6 6.16 11.65 13.71 16.99 20.94 3.71 5.31 10.06 7.94 13.83 13.22 8.34 10.24 11.87 23.38 13.36 36.27 1.84 17.02 8.55 33.03 10.91 49.95-0.02 4.47 4.28 6.75 6.44 10.15 4.06 5.04 6 11.69 11.27 15.72 11.7 9.86 18.71 23.93 23.82 38.09 5.26 12.92 10.4 26.2 11.22 40.28 0.81 8-0.38 15.97-1.4 23.88 0.37 8.67 1.82 17.27 2.57 25.91 3.99 39.11 8.21 78.29 8.98 117.62 0.02 5.99-0.67 12.5-4.97 17.08-1.32-5.8 0.09-11.78-0.62-17.65-0.41-16.49-4.78-32.5-10.11-48-5.1-15.03-10.77-29.89-17.71-44.17-0.86-1.83-1.66-3.75-1.63-5.79 0.39-42.18-6.41-85.45-26.46-123.01-14.89-28.09-37.66-51.79-64.88-68.14-33.85-20.55-73.05-30.58-112.14-34.75-47.65-4.94-95.86-1.71-143.03 6.1-16.51 2.91-33.06 5.95-49.18 10.57-14.49 6.38-27.41 16.25-37.76 28.21-12.98 15.06-21.34 33.69-25.78 52.97-5.91 25.56-5.73 52.15-2.5 78.07 2.39 18.26 6.08 36.41 11.75 53.96-8.65-3.05-18.6-4.63-27.21-0.61-9.41 4.28-15.25 13.52-19.08 22.75-7.13 17.7-8.85 37.01-9.26 55.92-1.1 19.49-2.89 39-6.75 58.16-1.74 7.83-3.63 15.76-7.28 22.96-0.47 1.97-1.98-0.13-2.1-0.99-10.08-25.41-21.22-50.39-32.99-75.05-0.99-2.77-3.77-3.94-6.22-5.07-1.45-7.97-3.04-15.94-3.58-24.03-2.02-26.08 2.64-51.98 4.55-77.91 1.93-22.46-0.27-45.06 2.18-67.48 1.43-12.9 4.55-25.74 10.44-37.36 6.55-12.94 14.35-25.29 23.61-36.46 2.93-3.62 4.52-8.06 6.92-12 9.77-16.57 23.01-30.79 32.49-47.54 10.91-18.17 26.19-33.15 41.72-47.37 18.25-16.41 35.57-33.94 55.38-48.52 26.94-20.33 57.9-36.71 91.66-41.5z" fill="#603813" stroke="#603813"/>
 <path d="m928.99 760.18c47.17-7.81 95.38-11.04 143.03-6.1 39.09 4.17 78.29 14.2 112.14 34.75 27.22 16.35 49.99 40.05 64.88 68.14 20.05 37.56 26.85 80.83 26.46 123.01-0.03 2.04 0.77 3.96 1.63 5.79 6.94 14.28 12.61 29.14 17.71 44.17 5.33 15.5 9.7 31.51 10.11 48 0.71 5.87-0.7 11.85 0.62 17.65 4.3-4.58 4.99-11.09 4.97-17.08 8.75-0.53 17.7 0.08 26.04 2.97 7.74 2.65 14.82 7.64 19.3 14.57 4.71 7.11 6.85 15.63 7.44 24.06 0.85 12.23-1.03 24.47-3.81 36.34-4.82 19.82-12.32 38.87-20.74 57.41-1.29 2.52-0.8 5.4-0.8 8.13 0.49 13.83-3.57 27.59-10.52 39.48-7.88 13.56-19.16 24.88-31.79 34.05-10.65 44.07-25.93 87.27-48.24 126.85-15.54 27.34-34.58 52.95-57.96 74.1-1.11 0.9-1.89 2.14-1.97 3.62-3.83 30.57-7.63 61.14-11.48 91.71-1.06-0.4-2.11-0.77-3.14-1.13 1.09 4.87 1.2 10.16 3.89 14.54 8.12 13.59 15.1 28.16 18.22 43.78 1.81 9.23 1.92 18.94-0.69 28.03-7.47 16.01-22.46 27.24-38.52 33.73-22.98 9.23-48.31 10.39-72.74 8.55-38.89-3.22-76.7-14-113.32-27.04-31.36-11.37-61.98-24.74-91.97-39.33-44.43-24.01-87.17-52.89-120.45-91.3-11.47-13.54-21.9-28.22-28.77-44.66 9.3-19.65 17.46-39.85 24.13-60.55 11.77-36.82 18.95-75.59 16.68-114.35-1.3-20.88-5.22-41.87-13.94-61-8.05 3.29-16.76 5.71-25.52 4.64-8.28-0.83-16.01-4.82-21.97-10.53-6.83-6.57-11.74-14.88-15.53-23.51-14.31-33.71-26.94-68.24-35.92-103.77-5.06-20.85-9.28-42.29-7.65-63.84 0.91-9.32 3.31-19.3 10.4-25.92 5.7-5.49 14.05-7.09 21.71-6.5 11.86 0.91 23.02 5.48 33.72 10.39 2.45 1.13 5.23 2.3 6.22 5.07 11.77 24.66 22.91 49.64 32.99 75.05 0.12 0.86 1.63 2.96 2.1 0.99 3.65-7.2 5.54-15.13 7.28-22.96 3.86-19.16 5.65-38.67 6.75-58.16 0.41-18.91 2.13-38.22 9.26-55.92 3.83-9.23 9.67-18.47 19.08-22.75 8.61-4.02 18.56-2.44 27.21 0.61-5.67-17.55-9.36-35.7-11.75-53.96-3.23-25.92-3.41-52.51 2.5-78.07 4.44-19.28 12.8-37.91 25.78-52.97 10.35-11.96 23.27-21.83 37.76-28.21 16.12-4.62 32.67-7.66 49.18-10.57m33.98 201.7c-23.64 2.93-47.27 7.69-69.4 16.71-14.43 6.1-28.76 14.18-38.34 26.92-5.69 7.46-8.79 16.66-9.3 26 30.72-14.32 64.11-23.79 98.12-24.68 22.44-0.38 45.34 3.92 65.01 15.08 8.65-5.29 17.33-11.65 22.08-20.87 2.86-5.41 2.81-12.31-0.73-17.41-5.16-7.76-13.84-12.1-22.08-15.85-7.53-3.11-15.24-5.96-23.2-7.67-7.42-0.07-14.8 1.03-22.16 1.77m178.12 10.33c-7.22 3.11-14.79 6.85-19.33 13.55-3.16 4.59-2.82 10.84 0.02 15.5 4.08 6.94 10.78 11.77 17.44 16.03 21.08-11.8 46.11-14.2 69.75-11.25 22.43 2.74 44.18 9.7 64.71 19.03-0.43-9.08-4.1-17.9-10.32-24.54-10.74-11.74-25.74-18.34-40.59-23.22-20.33-6.34-41.54-9.78-62.78-10.97-6.54 0.9-12.74 3.58-18.9 5.87m-196.72 78.36c-16.69 4.37-31.73 14.08-43.64 26.44 18.07 10.28 38.28 17.59 59.22 18.23 20.86 0.66 42.3-5.79 58.22-19.55-7.29-7.82-15.91-14.42-25.36-19.42-14.69-7.87-32.33-9.95-48.44-5.7m184.69 25.05c17.09 14.92 40.61 21.18 62.99 19.36 19.3-1.47 37.76-8.51 54.51-17.97-16.94-17.47-40.71-30.31-65.63-28.43-20.13 1.36-38.17 12.8-51.87 27.04m-437.77 21.63c-5.78 7.37-6.03 17.17-7.98 25.97-4.06 18.58-1.35 37.83 3.24 56.05 2.7 10.54 5.63 21.33 11.63 30.53 4.6 5.36 12.03 6.64 18.12 9.66 3.29-3.23 4.93-7.93 4.71-12.49-3.49-3.46-8.47-4.77-12.54-7.37-4.68-2.57-8.04-6.98-10.14-11.79-5.91-13.48-8.53-28.09-10.7-42.56-1.16-9.58-2.38-19.42-0.27-28.96 0.75-3.34 1.87-7.07 4.95-8.99 2.31-1.32 5.01 0.08 7.03 1.33 4.97 3.06 7.52 8.51 11.37 12.69 2.02-3.78 5.03-7.77 4.22-12.29-1.9-5.98-6.36-11.16-12-13.91-3.81-1.92-8.95-1.43-11.64 2.13m632.68 5.77c-2.2 3.49-2.2 7.79-2.72 11.77 2.35-0.04 5.24-1.22 7.13 0.79 4.03 3.95 4.36 10.06 5.12 15.34 0.86 9.99 0.24 20.14-1.75 29.97-0.71 3.74-2.22 7.28-4.43 10.37-2.51 3.48-2.54 7.93-2.41 12.05 6.02-3.97 8.81-11.04 10.59-17.73 2.81-11.7 2.52-23.84 3.97-35.73 0.46-8.9 0.42-18.48-3.91-26.52-2.41-4.28-8.66-3.53-11.59-0.31m-189.56 139.32c-3.38 2.76-8 3.68-10.91 7.08-2.83 3.29-4.97 7.29-5.73 11.6-0.17 1.4-0.77 3.49 1.05 4.15 2.04-2.09 3.51-4.84 6.17-6.23 4.92-2.31 10.44-3.23 15.29-5.62 2.36-3.62 3.05-8.06 3.04-12.3-2.96 0.19-6.52-0.95-8.91 1.32m-90.96 4.09c-4.39 3.44-5.87 9.52-5.51 14.88 2.88-1.46 5.61-3.76 9.03-3.57 7.18-0.03 13.51 3.74 20.07 6.1 1.96 0.88 3.24-1.47 3.89-2.93 1.14-3 2.59-6.39 1.7-9.59-3.64-2.23-7.73-3.58-11.69-5.08-5.55-1.94-12.24-3.26-17.49 0.19m-286.4 33.89c1.94 5.5 4.17 10.9 6.25 16.36 0.82 2.87 3.9 4.08 5.21 6.64 22.53 51.9 49.01 102.13 79.36 149.89 20.23 31.41 42.4 61.69 67.94 89.01 24.3 25.43 51.96 49.04 85.18 61.8 16.83 6.24 35.13 9.3 53.03 6.97 17.38-2 34-8.77 48.55-18.37 17.72-11.55 32.71-26.78 45.83-43.25 10.15-13.12 20.01-26.62 27.79-41.31-16.56 12.17-34.11 23.23-53.28 30.8-17.58 7.32-36.13 12.15-54.92 15.06-22.36 4.6-45.62 2.99-67.71-2.29-33.01-7.91-63.46-24.73-89.34-46.49-27.32-22.85-50.13-50.7-69.42-80.54-21.27-33.12-38.47-68.71-52.95-105.27-6.31-15.68-11.65-31.72-17.41-47.59-4.65 2.95-9.26 5.97-14.11 8.58m289 35.61c-4.68 0.26-9.4 0.1-14.02 0.96-12.89 2.02-25.9 3.15-38.74 5.5-2.21 0.28-4.08 1.53-5.13 3.51 2.61 2.15 5.45 4.03 8.51 5.51 7.52 3.74 14.94 8.15 23.37 9.46 4.78 0.63 9.18 2.66 13.63 4.39 28.09 10.01 59.03 14.51 88.35 7.41 18.12-4.18 34.82-13.32 49.01-25.23-15.64-4.74-31.89-7.22-48.04-9.5-25.48-3.33-51.34-4.42-76.94-2.01z" fill="#FBB03B" stroke="#FBB03B"/>
 <path d="m962.97 961.88c7.36-0.74 14.74-1.84 22.16-1.77 7.96 1.71 15.67 4.56 23.2 7.67 8.24 3.75 16.92 8.09 22.08 15.85 3.54 5.1 3.59 12 0.73 17.41-4.75 9.22-13.43 15.58-22.08 20.87-19.67-11.16-42.57-15.46-65.01-15.08-34.01 0.89-67.4 10.36-98.12 24.68 0.51-9.34 3.61-18.54 9.3-26 9.58-12.74 23.91-20.82 38.34-26.92 22.13-9.02 45.76-13.78 69.4-16.71z" fill="#603813" stroke="#603813"/>
 <path d="m1141.1 972.21c6.16-2.29 12.36-4.97 18.9-5.87 21.24 1.19 42.45 4.63 62.78 10.97 14.85 4.88 29.85 11.48 40.59 23.22 6.22 6.64 9.89 15.46 10.32 24.54-20.53-9.33-42.28-16.29-64.71-19.03-23.64-2.95-48.67-0.55-69.75 11.25-6.66-4.26-13.36-9.09-17.44-16.03-2.84-4.66-3.18-10.91-0.02-15.5 4.54-6.7 12.11-10.44 19.33-13.55z" fill="#603813" stroke="#603813"/>
 <path d="m944.37 1050.6c16.11-4.25 33.75-2.17 48.44 5.7 9.45 5 18.07 11.6 25.36 19.42-15.92 13.76-37.36 20.21-58.22 19.55-20.94-0.64-41.15-7.95-59.22-18.23 11.91-12.36 26.95-22.07 43.64-26.44m8.02-0.04c-10.13 3.15-16.93 14.21-15.08 24.68 1.2 9.05 8.56 16.84 17.54 18.55 8.79 2 18.57-1.99 23.41-9.61 6.1-9.03 4.33-22.41-4.14-29.35-5.83-5.13-14.4-6.68-21.73-4.27z" fill="#fff" stroke="#fff"/>
 <path d="m1129.1 1075.6c13.7-14.24 31.74-25.68 51.87-27.04 24.92-1.88 48.69 10.96 65.63 28.43-16.75 9.46-35.21 16.5-54.51 17.97-22.38 1.82-45.9-4.44-62.99-19.36m51.32-24.98c-9.88 3.2-16.42 13.93-14.81 24.19 1.01 9.08 8.27 16.96 17.18 18.85 8.33 2 17.72-1.3 22.86-8.19 6.7-8.45 5.98-21.72-1.73-29.28-5.86-6.29-15.46-8.38-23.5-5.57z" fill="#fff" stroke="#fff"/>
 <path d="m952.39 1050.5c7.33-2.41 15.9-0.86 21.73 4.27 8.47 6.94 10.24 20.32 4.14 29.35-4.84 7.62-14.62 11.61-23.41 9.61-8.98-1.71-16.34-9.5-17.54-18.55-1.85-10.47 4.95-21.53 15.08-24.68z" stroke="#000"/>
 <path d="m1180.4 1050.6c8.04-2.81 17.64-0.72 23.5 5.57 7.71 7.56 8.43 20.83 1.73 29.28-5.14 6.89-14.53 10.19-22.86 8.19-8.91-1.89-16.17-9.77-17.18-18.85-1.61-10.26 4.93-20.99 14.81-24.19z" stroke="#000"/>
 <path d="m691.29 1097.2c2.69-3.56 7.83-4.05 11.64-2.13 5.64 2.75 10.1 7.93 12 13.91 0.81 4.52-2.2 8.51-4.22 12.29-3.85-4.18-6.4-9.63-11.37-12.69-2.02-1.25-4.72-2.65-7.03-1.33-3.08 1.92-4.2 5.65-4.95 8.99-2.11 9.54-0.89 19.38 0.27 28.96 2.17 14.47 4.79 29.08 10.7 42.56 2.1 4.81 5.46 9.22 10.14 11.79 4.07 2.6 9.05 3.91 12.54 7.37 0.22 4.56-1.42 9.26-4.71 12.49-6.09-3.02-13.52-4.3-18.12-9.66-6-9.2-8.93-19.99-11.63-30.53-4.59-18.22-7.3-37.47-3.24-56.05 1.95-8.8 2.2-18.6 7.98-25.97z" fill="#F79420" stroke="#F79420"/>
 <path d="m1324 1103c2.93-3.22 9.18-3.97 11.59 0.31 4.33 8.04 4.37 17.62 3.91 26.52-1.45 11.89-1.16 24.03-3.97 35.73-1.78 6.69-4.57 13.76-10.59 17.73-0.13-4.12-0.1-8.57 2.41-12.05 2.21-3.09 3.72-6.63 4.43-10.37 1.99-9.83 2.61-19.98 1.75-29.97-0.76-5.28-1.09-11.39-5.12-15.34-1.89-2.01-4.78-0.83-7.13-0.79 0.52-3.98 0.52-8.28 2.72-11.77z" fill="#F79420" stroke="#F79420"/>
 <path d="m1134.4 1242.3c2.39-2.27 5.95-1.13 8.91-1.32 0.01 4.24-0.68 8.68-3.04 12.3-4.85 2.39-10.37 3.31-15.29 5.62-2.66 1.39-4.13 4.14-6.17 6.23-1.82-0.66-1.22-2.75-1.05-4.15 0.76-4.31 2.9-8.31 5.73-11.6 2.91-3.4 7.53-4.32 10.91-7.08z" fill="#F7931E" stroke="#F7931E"/>
 <path d="m1043.4 1246.4c5.25-3.45 11.94-2.13 17.49-0.19 3.96 1.5 8.05 2.85 11.69 5.08 0.89 3.2-0.56 6.59-1.7 9.59-0.65 1.46-1.93 3.81-3.89 2.93-6.56-2.36-12.89-6.13-20.07-6.1-3.42-0.19-6.15 2.11-9.03 3.57-0.36-5.36 1.12-11.44 5.51-14.88z" fill="#F7931E" stroke="#F7931E"/>
 <path d="m757.05 1280.3c4.85-2.61 9.46-5.63 14.11-8.58 5.76 15.87 11.1 31.91 17.41 47.59 14.48 36.56 31.68 72.15 52.95 105.27 19.29 29.84 42.1 57.69 69.42 80.54 25.88 21.76 56.33 38.58 89.34 46.49 22.09 5.28 45.35 6.89 67.71 2.29 18.79-2.91 37.34-7.74 54.92-15.06 19.17-7.57 36.72-18.63 53.28-30.8-7.78 14.69-17.64 28.19-27.79 41.31-13.12 16.47-28.11 31.7-45.83 43.25-14.55 9.6-31.17 16.37-48.55 18.37-17.9 2.33-36.2-0.73-53.03-6.97-33.22-12.76-60.88-36.37-85.18-61.8-25.54-27.32-47.71-57.6-67.94-89.01-30.35-47.76-56.83-97.99-79.36-149.89-1.31-2.56-4.39-3.77-5.21-6.64-2.08-5.46-4.31-10.86-6.25-16.36z" fill="#F7931E" stroke="#F7931E"/>
 <path d="m1046 1315.9c25.6-2.41 51.46-1.32 76.94 2.01 16.15 2.28 32.4 4.76 48.04 9.5-14.19 11.91-30.89 21.05-49.01 25.23-29.32 7.1-60.26 2.6-88.35-7.41-4.45-1.73-8.85-3.76-13.63-4.39-8.43-1.31-15.85-5.72-23.37-9.46-3.06-1.48-5.9-3.36-8.51-5.51 1.05-1.98 2.92-3.23 5.13-3.51 12.84-2.35 25.85-3.48 38.74-5.5 4.62-0.86 9.34-0.7 14.02-0.96z" fill="#F7931E" stroke="#F7931E"/>
 <path d="m726.41 1510.9c0.64 2.02 1.32 4.03 2.11 6.03 6.87 16.44 17.3 31.12 28.77 44.66 33.28 38.41 76.02 67.29 120.45 91.3 50.76 52.02 101.97 103.62 152.84 155.53 28.68 28.95 57.09 58.17 85.84 87.05 20.25-56.77 40.57-113.53 60.86-170.29 5.59-16.09 11.72-32.01 17.01-48.2 2.61-9.09 2.5-18.8 0.69-28.03-3.12-15.62-10.1-30.19-18.22-43.78-2.69-4.38-2.8-9.67-3.89-14.54 1.03 0.36 2.08 0.73 3.14 1.13 25.01 9.17 49.89 18.7 74.69 28.43 67.45 26.61 134.44 54.6 199.63 86.43 30.55 15.11 60.87 30.87 89.48 49.46 15.02 9.95 29.93 20.52 41.95 34.08 4.09 4.3 8.81 7.93 13.04 12.1 35.14 33.37 66.06 71.27 91.26 112.69 27.89 45.99 48.23 97.29 54.17 151.01h-1477.8c-2.67-31.97-2.56-64.18 0.45-96.12 3.64-37.23 11.27-74.59 27.45-108.54 12.41-26.07 30.89-49.93 55.69-65.22 15.99-9.24 31.56-19.16 47.27-28.87 66.85-41.9 133.08-84.87 197.42-130.56 28.98-20.77 57.71-41.98 84.93-65.03 13.76-11.88 27.48-23.98 39.04-38.06 5.34-6.66 10.61-13.95 11.72-22.66z" stroke="#000"/>
 <path d="m877.74 1652.9c29.99 14.59 60.61 27.96 91.97 39.33 36.62 13.04 74.43 23.82 113.32 27.04 24.43 1.84 49.76 0.68 72.74-8.55 16.06-6.49 31.05-17.72 38.52-33.73-5.29 16.19-11.42 32.11-17.01 48.2-20.29 56.76-40.61 113.52-60.86 170.29-28.75-28.88-57.16-58.1-85.84-87.05-50.87-51.91-102.08-103.51-152.84-155.53z" fill="#00f" stroke="#00f"/>
</svg>
