<?xml version="1.0" encoding="UTF-8"?>
<svg width="1315.2" height="2100" version="1.1" viewBox="0 0 1315.188 2099.9998" xmlns="http://www.w3.org/2000/svg" xmlns:xlink="http://www.w3.org/1999/xlink">
 <defs>
  <linearGradient id="w">
   <stop stop-color="#0a630d" offset="0"/>
   <stop stop-color="#4bc74e" offset="1"/>
  </linearGradient>
  <filter id="t" x="-.10512" y="-.10608" width="1.2102" height="1.2122" color-interpolation-filters="sRGB">
   <feGaussianBlur stdDeviation="0.68415578"/>
  </filter>
  <filter id="u" x="-.1181" y="-.12196" width="1.2362" height="1.2439" color-interpolation-filters="sRGB">
   <feGaussianBlur stdDeviation="0.79380049"/>
  </filter>
  <filter id="v" x="-.0057588" y="-.0062623" width="1.0115" height="1.0125" color-interpolation-filters="sRGB">
   <feGaussianBlur stdDeviation="0.042633927"/>
  </filter>
  <filter id="x" x="-.1391" y="-.11923" width="1.2782" height="1.2385" color-interpolation-filters="sRGB">
   <feGaussianBlur stdDeviation="0.062098915"/>
  </filter>
  <filter id="y" x="-.11923" y="-.1391" width="1.2385" height="1.2782" color-interpolation-filters="sRGB">
   <feGaussianBlur stdDeviation="0.062098915"/>
  </filter>
  <filter id="z" x="-.31805" y="-.51198" width="1.6361" height="2.024" color-interpolation-filters="sRGB">
   <feGaussianBlur stdDeviation="1.193529"/>
  </filter>
  <filter id="aa" x="-.26276" y="-.58174" width="1.5255" height="2.1635" color-interpolation-filters="sRGB">
   <feGaussianBlur stdDeviation="0.88089899"/>
  </filter>
  <filter id="ab" x="-.054637" y="-.32627" width="1.1093" height="1.6525" color-interpolation-filters="sRGB">
   <feGaussianBlur stdDeviation="0.91478783"/>
  </filter>
  <filter id="ac" x="-.054649" y="-.32584" width="1.1093" height="1.6517" color-interpolation-filters="sRGB">
   <feGaussianBlur stdDeviation="0.92989827"/>
  </filter>
  <filter id="ad" x="-.058547" y="-.089538" width="1.1171" height="1.1791" color-interpolation-filters="sRGB">
   <feGaussianBlur stdDeviation="4.9489661"/>
  </filter>
  <filter id="ae" x="-.057188" y="-.092915" width="1.1144" height="1.1858" color-interpolation-filters="sRGB">
   <feGaussianBlur stdDeviation="1.0233434"/>
  </filter>
  <filter id="af" x="-.057387" y="-.092396" width="1.1148" height="1.1848" color-interpolation-filters="sRGB">
   <feGaussianBlur stdDeviation="1.0176235"/>
  </filter>
  <radialGradient id="al" cx="514.16" cy="609.92" r="11.554" gradientTransform="matrix(-.52869 .22015 -.12481 -.50393 863.14 808.55)" gradientUnits="userSpaceOnUse">
   <stop stop-color="#f7e5d8" offset="0"/>
   <stop stop-color="#e9c6af" offset="1"/>
  </radialGradient>
  <filter id="ag" x="-.058136" y="-.12786" width="1.1163" height="1.2557" color-interpolation-filters="sRGB">
   <feGaussianBlur stdDeviation="0.5597739"/>
  </filter>
  <linearGradient id="aj" x1="554.14" x2="554.43" y1="576.53" y2="592.19" gradientUnits="userSpaceOnUse" xlink:href="#w"/>
  <linearGradient id="ak" x1="565.82" x2="565.99" y1="577.37" y2="593.66" gradientUnits="userSpaceOnUse" xlink:href="#w"/>
  <filter id="ah" x="-.049548" y="-.15942" width="1.0991" height="1.3188" color-interpolation-filters="sRGB">
   <feGaussianBlur stdDeviation="0.76729555"/>
  </filter>
  <filter id="ai" x="-.020193" y="-.029577" width="1.0404" height="1.0592" color-interpolation-filters="sRGB">
   <feGaussianBlur stdDeviation="0.76713524"/>
  </filter>
 </defs>
 <g transform="translate(161.41 417.34)">
  <g transform="matrix(4.7716 0 0 4.7716 -1943 -2447.5)">
   <path d="m619.29 597.36s23.42-54.014 18.571-81.429c-3.3582-18.99-12.79-43.622-31.429-48.571-7.5133-1.9953-17.857 2.8572-17.857 2.8572s-1.2193-7.9392-5.7143-13.571c-6.814-8.5381-24.271-12.233-35-14.286-32.046-6.1317-52.408-10.377-83.571-0.71428-17.924 5.5574-36.693 12.528-50.714 25-11.081 9.8572-25.225 27.695-28.571 42.143-6.8859 29.727 19.286 87.857 19.286 87.857s-10.426 72.993 5.7143 103.57c6.0243 11.413 17.935 21.768 30.714 23.571 51.981 7.3341 85.131 9.0315 134.29 5 14.115-1.1576 37.775-4.6984 45.714-20 14.708-28.348-1.4286-111.43-1.4286-111.43z" fill="#892323"/>
   <path d="m411.09 578.6c2.8543 7.4978 5.0496 12.384 5.0496 12.384s-3.0212 62.091 5.053 91.577c4.1224 15.055 4.0663 38.812 21.6 41.549 45.861 7.1591 95.476 6.9754 138.94 3.4108 12.48-1.0236 21.366-22.902 25.772-37.382 9.5612-31.421-1.2732-98.523-1.2624-98.523 0 0 2.251-5.2201 5.1048-13.016z" fill="#772727"/>
   <path d="m583.71 478.79c-17.261-13.134-24.297-13.532-39.643-17.857-21.07-5.9379-46.004-1.8831-67.857 7.5-16.789 7.2088-34.616 7.2415-52.143 15.714-29.649 14.333-23.864 92.002-17.143 96.071-13.63-17.696-13.693-66.467 2.8571-92.5 10.454-16.444 33.792-19.874 52.143-26.429 14.58-5.2077 29.888-9.3657 45.357-10 22.087-0.90563 47.361-3.3939 65.714 8.9286 5.9335 3.9838 10.714 18.571 10.714 18.571z" fill="#a02c2c" stroke="#a02c2c" stroke-linecap="round" stroke-linejoin="round" stroke-width="2.6"/>
   <path d="m425.64 597.41a27.968 10.041 79.942 0 1 -4.7195 29.779 27.968 10.041 79.942 0 1 -14.864 -25.221 27.968 10.041 79.942 0 1 4.7195 -29.779 27.968 10.041 79.942 0 1 14.864 25.221z" fill="#e9c6af"/>
   <path d="m584.51 478.43c14.903-3.7037 31.199 19.852 37.857 35 9.2216 20.981 6.6647 45.669-5 68.571 14.681-25.585 14.062-36.646 13.214-55.714-0.55186-12.411-4.405-25.364-11.786-35.357-4.8673-6.5901-12.058-12.275-20-14.286-4.6522-1.1777-14.286 1.7857-14.286 1.7857z" fill="#a02c2c" stroke="#a02c2c" stroke-linecap="round" stroke-linejoin="round" stroke-width="2.6"/>
   <path d="m619.5 604.41a10.047 28.97 9.1217 0 1 -14.63 26.316 10.047 28.97 9.1217 0 1 -4.9954 -30.803 10.047 28.97 9.1217 0 1 14.63 -26.316 10.047 28.97 9.1217 0 1 4.9954 30.803z" fill="#e9c6af"/>
   <path d="m489.46 687.7h54.548c3e-5 0 5e-5 2e-5 5e-5 4e-5l-7.0711 72.731c-34.624-0.60279 9.4638-0.50504-47.477-0.50504 18.688 0 8.0812-0.50509 8.0812-0.50512l-8.0812-71.721c0-2e-5 2e-5 -4e-5 4e-5 -4e-5z" fill="#e9c6af"/>
   <path d="m487.94 685.68h54.548c3e-5 0 1.6072-0.17855 1.6072-0.17853l-1.9949 20.887s-13.993 4.703-23.304 4.9914c-9.8193 0.30416-26.933-3.6547-26.933-3.6547l-3.9234-22.045s2e-5 -4e-5 4e-5 -4e-5z" fill="#deaa87"/>
   <path d="m604.29 573.79c0 54.439-23.163 130.94-88.517 130-67.671-0.97011-94.34-74.132-94.34-128.57s49.957-75.714 94.34-75.714c44.384 0 88.517 19.846 88.517 74.286z" fill="#e9c6af"/>
   <path d="m417.23 756.39c49.072-43.627 146.44-42.93 196.98-1.0102 25.95 21.525 18.183 99.5 18.183 99.5l-227.28 5e-5s-12.599-76.512 12.122-98.49z" fill="#e9c6af"/>
   <path d="m417.23 755.81c16.41-14.675 38.222-24.365 61.877-29.184 1.0977-0.22367 8.8605-1.4016 8.8605-1.4016s7.2672 39.908 29.018 39.749c19.505-0.14308 28.753-39.471 28.753-39.471s1.5604 0.2625 2.3383 0.40128c25.059 4.4706 48.459 14.145 66.132 28.891 25.95 21.652 18.183 100.08 18.183 100.08l-227.28 5e-5s-12.599-76.962 12.122-99.069z" fill="#8d5fd3"/>
   <path d="m542.01 565.8 21.691 2.6786s11.607 3.0357 11.607 3.0358l-0.38779 10.529s-9.3505 9.8816-18.661 10.17c-9.8193 0.30416-23.898-3.119-23.898-3.119l1.0766-17.223z" fill="#deaa87" filter="url(#ae)"/>
   <path d="m531.11 570.56c-0.65423 1.5874-0.0408 3.1033 1.6476 2.7916 7.1691-1.3235 8.6514-5.8118 16.745-5.9817 8.5464-0.17945 31.286 6.7362 31.286 6.7362s-15.5-9.2876-26.559-11.017c-8.0015-1.2515-20.033-0.0166-23.119 7.4711z" fill="#892323"/>
   <path d="m575.32 581.54c-0.3048 5.1537-2.3299 11.208-19.343 12.001s-19.877-0.24721-23.981-5.0052c2.8603-4.9366 4.6513-9.9585 19.878-12.001s19.752-0.36749 23.446 5.0052z" fill="#fff"/>
   <path d="m561.44 573.7c-2.5496-0.13224-6.171-0.23344-9.2093 0.21093-7.1641 1.0478-15.021 5.7804-19.075 10.304-0.23982 0.26758-1.4111 3.9221-1.1816 4.1702 2.5528-4.5226 5.9303-9.9751 19.9-11.849 14.971-2.008 19.773-0.19243 23.434 4.9674 0.0942-0.58526 0.30349-1.4714 0.0109-1.9634-3.4985-4.0194-9.3161-5.6032-13.879-5.8398z" fill="#892323"/>
   <path d="m575.36 581.42c0.90536-1.839 1.2796-3.9435 1.6964-6.0268-0.8521 1.7349-1.6853 3.5358-2.7678 4.4643z" fill="#892323"/>
   <path d="m574.51 580.13c0.90536-1.839 1.2796-3.9435 1.6964-6.0268-0.8521 1.7349-1.6853 3.5358-2.7678 4.4643z" fill="#892323"/>
   <path d="m573.53 579.24c0.90536-1.839 1.2796-3.9435 1.6964-6.0268-0.8521 1.7349-1.6853 3.5358-2.7678 4.4643z" fill="#892323"/>
   <ellipse cx="554.29" cy="584.86" rx="8.8839" ry="8.1696" fill="url(#aj)" filter="url(#v)"/>
   <g transform="translate(-11.295 -.66964)" fill="#1cf623" filter="url(#t)" stroke="#0c8910" stroke-linecap="round">
    <path d="m571.4 579.76c-11.905 10.968-11.948 11.01-11.948 11.01" stroke-width=".5722"/>
    <path d="m559.84 579.97c11.519 10.761 11.561 10.802 11.561 10.802" stroke-width=".55751"/>
    <path d="m564.15 577.82c2.5326 15.42 2.5404 15.478 2.5404 15.478" stroke-width=".56297"/>
    <path d="m568.96 578.3c-7.2132 14.152-7.2414 14.204-7.2414 14.204" stroke-width=".56068"/>
    <path d="m572.99 582.31c-15.075 5.8972-15.131 5.9175-15.131 5.9175" stroke-width=".5722"/>
    <path d="m573.23 587.5c-15.563-4.4526-15.62-4.4708-15.62-4.4708" stroke-width=".5722"/>
   </g>
   <g transform="matrix(.96813 .25046 -.25046 .96813 153.39 -123.62)" fill="#1cf623" filter="url(#u)" stroke="#2dbb32" stroke-linecap="round">
    <path d="m571.4 579.76c-11.905 10.968-11.948 11.01-11.948 11.01" stroke-width=".5722"/>
    <path d="m559.84 579.97c11.519 10.761 11.561 10.802 11.561 10.802" stroke-width=".55751"/>
    <path d="m564.15 577.82c2.5326 15.42 2.5404 15.478 2.5404 15.478" stroke-width=".56297"/>
    <path d="m568.96 578.3c-7.2132 14.152-7.2414 14.204-7.2414 14.204" stroke-width=".56068"/>
    <path d="m572.99 582.31c-15.075 5.8972-15.131 5.9175-15.131 5.9175" stroke-width=".5722"/>
    <path d="m573.23 587.5c-15.563-4.4526-15.62-4.4708-15.62-4.4708" stroke-width=".5722"/>
   </g>
   <ellipse cx="554.13" cy="584.88" rx="3.4152" ry="3.1696"/>
   <g fill="#fff" filter="url(#y)">
    <ellipse cx="555.11" cy="583.5" rx=".37946" ry=".33482"/>
    <ellipse cx="555.6" cy="583.9" rx=".37946" ry=".33482"/>
   </g>
   <path d="m486.05 566.15-21.691 2.6786s-11.071 3.9286-11.071 3.9286l-0.14792 9.6366s9.3505 9.8816 18.661 10.17c9.8193 0.30416 23.898-3.119 23.898-3.119l-1.0766-17.223z" fill="#deaa87" filter="url(#af)"/>
   <path d="m497.34 571.07c0.65423 1.5874 0.0408 3.1033-1.6476 2.7916-7.1691-1.3235-8.6514-5.8118-16.745-5.9817-8.5464-0.17945-32.357 8.1648-32.357 8.1648s16.572-10.716 27.63-12.446c8.0015-1.2515 20.033-0.0166 23.119 7.4711z" fill="#892323"/>
   <path d="m453.04 582c0.3048 5.1537 2.3299 11.208 19.343 12.001s19.877-0.24721 23.981-5.0052c-2.8603-4.9366-4.6513-9.9585-19.878-12.001s-19.752-0.36749-23.446 5.0052z" fill="#fff"/>
   <path d="m466.92 574.16c2.5496-0.13224 6.171-0.23344 9.2093 0.21093 7.1641 1.0478 15.021 5.7804 19.075 10.304 0.23982 0.26758 1.4111 3.9221 1.1816 4.1702-2.5528-4.5226-5.9303-9.9751-19.9-11.849-14.971-2.008-19.773-0.19243-23.434 4.9674-0.0942-0.58526-0.30349-1.4714-0.0109-1.9634 3.4985-4.0194 9.3161-5.6032 13.879-5.8398z" fill="#892323"/>
   <path d="m453 581.89c-0.90536-1.839-1.2796-3.9435-1.6964-6.0268 0.8521 1.7349 1.6853 3.5358 2.7678 4.4643z" fill="#892323"/>
   <path d="m453.85 580.59c-0.90536-1.839-1.2796-3.9435-1.6964-6.0268 0.8521 1.7349 1.6853 3.5358 2.7678 4.4643z" fill="#892323"/>
   <path d="m454.83 579.7c-0.90536-1.839-1.2796-3.9435-1.6964-6.0268 0.8521 1.7349 1.6853 3.5358 2.7678 4.4643z" fill="#892323"/>
   <ellipse transform="matrix(-1 0 0 1 1039.8 -.25254)" cx="565.71" cy="585.58" rx="8.8839" ry="8.1696" fill="url(#ak)" filter="url(#v)"/>
   <g transform="matrix(-1 0 0 1 1039.7 -.2079)" fill="#1cf623" filter="url(#t)" stroke="#0c8910" stroke-linecap="round">
    <path d="m571.4 579.76c-11.905 10.968-11.948 11.01-11.948 11.01" stroke-width=".5722"/>
    <path d="m559.84 579.97c11.519 10.761 11.561 10.802 11.561 10.802" stroke-width=".55751"/>
    <path d="m564.15 577.82c2.5326 15.42 2.5404 15.478 2.5404 15.478" stroke-width=".56297"/>
    <path d="m568.96 578.3c-7.2132 14.152-7.2414 14.204-7.2414 14.204" stroke-width=".56068"/>
    <path d="m572.99 582.31c-15.075 5.8972-15.131 5.9175-15.131 5.9175" stroke-width=".5722"/>
    <path d="m573.23 587.5c-15.563-4.4526-15.62-4.4708-15.62-4.4708" stroke-width=".5722"/>
   </g>
   <g transform="matrix(-.96813 .25046 .25046 .96813 874.97 -123.16)" fill="#1cf623" filter="url(#u)" stroke="#2dbb32" stroke-linecap="round">
    <path d="m571.4 579.76c-11.905 10.968-11.948 11.01-11.948 11.01" stroke-width=".5722"/>
    <path d="m559.84 579.97c11.519 10.761 11.561 10.802 11.561 10.802" stroke-width=".55751"/>
    <path d="m564.15 577.82c2.5326 15.42 2.5404 15.478 2.5404 15.478" stroke-width=".56297"/>
    <path d="m568.96 578.3c-7.2132 14.152-7.2414 14.204-7.2414 14.204" stroke-width=".56068"/>
    <path d="m572.99 582.31c-15.075 5.8972-15.131 5.9175-15.131 5.9175" stroke-width=".5722"/>
    <path d="m573.23 587.5c-15.563-4.4526-15.62-4.4708-15.62-4.4708" stroke-width=".5722"/>
   </g>
   <ellipse transform="scale(-1,1)" cx="-474.23" cy="585.35" rx="3.4152" ry="3.1696"/>
   <g transform="matrix(0 1 -1 0 1058.9 113.56)" fill="#fff" filter="url(#x)">
    <ellipse transform="scale(1,-1)" cx="470.72" cy="-583.46" rx=".37946" ry=".33482"/>
    <ellipse transform="scale(1,-1)" cx="470.23" cy="-583.86" rx=".37946" ry=".33482"/>
   </g>
   <path d="m500.58 620.51c-4.0583 3.5022-4.9561 8.2819-2.332 10.923 1.9902 2.0031 5.4997-2.1093 8.2958-1.7152 3.0733 0.4332 5.1411 4.1972 8.2419 4.3322 3.3381 0.14531 5.9285-3.4647 9.2445-3.8751 2.7911-0.34543 6.3145 3.2158 8.3416 1.2663 2.7104-2.6067 1.6178-6.6799-1.2571-11.211-0.39708 5.1961 2.2432 7.32-0.24327 9.0012-2.2505 1.5216-4.9295-2.9736-7.6423-2.8308-3.0351 0.15975-5.1315 4.0843-8.1706 4.0472-2.8672-0.035-4.7579-3.7378-7.6128-4.0054-2.6076-0.24442-5.4688 3.9408-7.512 2.3025-2.1481-1.7224 0.40562-3.6626 0.64635-8.2347z" fill="#deaa87"/>
   <g transform="matrix(.80334 0 0 .80334 276.17 184.2)">
    <g transform="translate(-.17857 -31.964)">
     <path d="m262.86 622.72h71.25c2e-5 0-0.17852 1.7857-0.17853 1.7858l-3.5714 2.8571c-21.232 5.5065-41.325 9.075-67.5-3.7499 0 0 2e-5 -0.8929 4e-5 -0.8929z" fill="#fff"/>
     <path d="m299.11 623.43v8.0357" fill="#d6caca" stroke="#c8d7c8" stroke-linecap="round" stroke-width=".1"/>
     <path d="m309.11 623.43v8.0357" fill="#d6caca" stroke="#c8d7c8" stroke-linecap="round" stroke-width=".1"/>
     <path d="m317.11 623.43v8.0357" fill="#d6caca" stroke="#c8d7c8" stroke-linecap="round" stroke-width=".1"/>
     <path d="m325.11 621.43v8.0357" fill="#d6caca" stroke="#c8d7c8" stroke-linecap="round" stroke-width=".1"/>
     <path d="m289.11 621.43v8.0357" fill="#d6caca" stroke="#c8d7c8" stroke-linecap="round" stroke-width=".1"/>
     <path d="m281.11 621.43v8.0357" fill="#d6caca" stroke="#c8d7c8" stroke-linecap="round" stroke-width=".1"/>
     <path d="m273.11 621.43v8.0357" fill="#d6caca" stroke="#c8d7c8" stroke-linecap="round" stroke-width=".1"/>
     <path d="m273.11 621.43v8.0357" fill="#d6caca" stroke="#c8d7c8" stroke-linecap="round" stroke-width=".1"/>
    </g>
    <path d="m261.12 591.49s24.127 5.0174 36.365 5.0508c12.739 0.0347 37.881-5.0508 37.881-5.0508s-6.2556 8.1431-10.607 10.607c-8.4568 4.7882-18.573 7.444-28.284 7.0711-9.0441-0.34733-17.996-3.9325-25.759-8.5863-3.7792-2.2657-9.5965-9.0914-9.5965-9.0914z" fill="#faa"/>
    <path d="m261.12 591.77s24.807 1.6086 37.228 1.6071c12.53-1e-3 37.019-1.6071 37.019-1.6071s-9.9226-9.4891-16.31-10.571c-6.9956-1.1845-13.582 5.0601-20.677 5.0508-7.0192-9e-3 -13.513-6.1656-20.443-5.0508-6.5366 1.0515-16.815 10.571-16.815 10.571z" fill="#faa"/>
   </g>
   <path d="m423.67 606.49c-8.0912 0.72221-5.1758 8.4927-5.1758 8.4927-3.4585-3.9661-1.6234-5.4817 5.1758-8.4927zm-8.9027-21.092c-8.302 11.235-1.7973 17.961 3.6065 30.143-9.634-12.419-10.198-24.166-3.6065-30.143z" fill="#deaa87" stroke="#deaa87" stroke-linecap="round" stroke-linejoin="round" stroke-width="2.6"/>
   <path d="m602.38 608.49c8.0912 0.72221 5.1758 8.4927 5.1758 8.4927 3.4585-3.9661 1.6234-5.4817-5.1758-8.4927zm8.9027-21.092c8.302 11.235 1.7973 17.961-3.6065 30.143 9.634-12.419 10.198-24.166 3.6065-30.143z" fill="#deaa87" stroke="#deaa87" stroke-linecap="round" stroke-linejoin="round" stroke-width="2.6"/>
   <path transform="matrix(.9529 0 0 .90386 24.09 56.864)" d="m575.24 498.34s10.688-2.7526 15.459-0.71456c7.7956 3.3298 13.293 11.515 17.177 19.293 4.5343 9.0793 5.636 19.796 6.1838 30.011 0.64083 11.95-0.52836 24.147-3.4354 35.728-2.4613 9.8047-11.68 27.868-11.68 27.868s2.4686-36.42-4.8096-52.162c-4.5621-9.8673-17.716-13.207-22.674-22.866-2.4116-4.6985-2.7483-15.72-2.7483-15.72s-12.403 10.124-24.735 16.435c-20.672 10.578-53.924 20.674-77.64 20.007-10.69-0.30053-24.234-2.3395-31.606 5.7164-11.613 12.691-6.1838 52.162-6.1838 52.162s-17.658-37.207-17.177-57.164c0.3485-14.464 4.3418-30.765 14.429-40.73 7.8257-7.7308 20.837-5.9949 30.919-10.004 16.465-6.5472 30.738-19.668 48.096-22.866 18.775-3.4586 39.174-2.3181 57.028 4.6446 5.2111 2.0323 13.398 10.361 13.398 10.361z" fill="#deaa87" filter="url(#ad)" stroke="#deaa87" stroke-linecap="round" stroke-linejoin="round" stroke-width="2.5505"/>
   <path d="m578.21 492.36s11.111-2.7516 16.071-0.71429c8.1042 3.3286 13.819 11.511 17.857 19.286 4.7138 9.0759 5.8591 19.789 6.4286 30 0.6662 11.946-0.58124 24.13-3.5714 35.714-2.7775 10.76-13.153 30.635-13.153 30.635s3.7727-38.288-3.9898-54.921c-4.6286-9.9177-18.418-13.202-23.571-22.857-2.5071-4.6967-2.8571-15.714-2.8571-15.714s-12.894 10.121-25.714 16.429c-21.49 10.574-56.059 20.667-80.714 20-11.113-0.30042-25.193-2.3387-32.857 5.7143-12.073 12.686-6.4286 52.143-6.4286 52.143s-18.357-37.193-17.857-57.143c0.3623-14.459 4.5137-30.753 15-40.714 8.1355-7.7279 21.662-5.9926 32.143-10 17.117-6.5447 31.955-19.661 50-22.857 19.519-3.4573 40.725-2.3172 59.286 4.6429 5.4174 2.0315 13.929 10.357 13.929 10.357z" fill="#a02c2c" stroke="#a02c2c" stroke-linecap="round" stroke-linejoin="round" stroke-width="2.6"/>
   <path d="m574.07 503.01c-20.118-0.27698-23.4-1.9037-33.571 2.8571-20.543 9.6152-43.081 16.604-64.286 18.571-28.382 2.633-54.863 12.726-54.286 66.071-13.706-17.947-2.0949-53.414 14.643-70.714 7.7498-8.01 21.742-4.9452 32.5-7.8571 13.197-3.572 26.345-7.375 39.286-11.786 9.7729-3.331 18.604-11.053 28.929-11.071 13.111-0.0233 36.786 13.929 36.786 13.929z" fill="#892323" stroke="#892323" stroke-linecap="round" stroke-linejoin="round" stroke-width="2.6"/>
   <path d="m573.05 503.38c10.343-2.5704 21.652 13.777 26.273 24.29 6.3999 14.561 9.2682 34.552 7.6014 52.589 5.1888-20.971 7.3644-31.941 3.4565-47.237-2.0591-8.06-7.7938-14.948-13.536-20.967-3.925-4.1137-8.3682-8.519-13.88-9.9144-3.2286-0.81736-9.9144 1.2393-9.9144 1.2393z" fill="#892323" stroke="#892323" stroke-linecap="round" stroke-linejoin="round" stroke-width="1.8044"/>
   <path d="m462.05 855.09-17.232-0.029c1.1821-25.717 2.9897-49.164 12.682-70.467z" fill="#673ea5"/>
   <path d="m568.82 855.09 17.232-0.029c-1.1821-25.717-2.9897-49.164-12.682-70.467z" fill="#673ea5"/>
   <ellipse cx="605.48" cy="624.75" rx="2.7779" ry="3.0305" fill="#62e5f0"/>
   <ellipse cx="419.48" cy="622.75" rx="2.7779" ry="3.0305" fill="#61e5ef"/>
   <path d="m494.7 662.4s13.058 1.9061 19.682 1.9188c6.8943 0.0132 20.502-1.9188 20.502-1.9188s-3.3856 3.0936-5.7404 4.0295c-4.577 1.8191-10.052 2.828-15.308 2.6864-4.8948-0.13196-9.7398-1.494-13.941-3.262-2.0454-0.86076-5.1938-3.4539-5.1938-3.4539z" fill="#febaba" filter="url(#ab)"/>
   <path d="m494.89 657.97s13.469 1.0902 20.928 1.0895c7.5246-4.6e-4 19.91-1.0895 19.91-1.0895s-4.4245-5.0837-7.5042-5.6611c-4.2174-0.7908-8.0968 3.4264-12.387 3.5029-4.7365 0.0846-9.1712-4.3628-13.805-3.3767-2.9459 0.62698-7.1418 5.5349-7.1418 5.5349z" fill="#febaba" filter="url(#ac)"/>
   <path transform="matrix(.64124 0 0 .62559 190.64 244.49)" d="m526.96 653.98c-0.0647 0.12235-0.12672 0.28659-0.0644 0.41016 1.0571 2.0962 2.6509 3.0025 6.2441 3.2578 1.4866-0.1174 2.502-0.20313 2.502-0.20313 0.8722-0.36724-0.54088-6.2589-6.7451-5.2827-0.71266 0.48914-1.5227 1.0352-1.9366 1.8179z" fill="#fff" filter="url(#z)" opacity=".611"/>
   <path transform="matrix(.69239 0 0 .90909 164.29 59.613)" d="m535.76 661.88s-3.4809 1.1646-8.0459 1.843c1.454 0.88519 3.7845 1.751 5.8267 1.7912 1.568-1.1455 2.2192-3.6342 2.2192-3.6342z" fill="#ffe4e4" filter="url(#aa)" opacity=".611"/>
   <path transform="matrix(1.0061 0 0 1.1528 -3.398 -98.303)" d="m500.58 624.74c-3.6794 3.0256-3.7559 7.2345-2.332 9.1271 1.517 2.0164 5.4997-1.7625 8.2958-1.4332 3.0733 0.36197 5.1411 3.5071 8.2419 3.6199 3.3381 0.12142 5.9285-2.8951 9.2445-3.238 2.7911-0.28863 6.2933 2.7367 8.3416 1.0581 2.6322-2.1571 1.9943-5.6364-0.88056-9.4227 1.652 4.2042 1.8782 6.1706-0.61978 7.5761-2.2532 1.2678-4.9295-2.4847-7.6423-2.3654-3.0351 0.13348-5.1315 3.4128-8.1706 3.3818-2.8672-0.0292-4.7579-3.1233-7.6128-3.3469-2.6076-0.20423-5.4526 3.2743-7.512 1.9239-2.2031-1.4446-0.87985-3.1851 0.64635-6.8808z" fill="#deaa87" filter="url(#ah)"/>
   <path transform="matrix(1.2966 0 0 1 -151.52 2)" d="m526.25 620.02-23.109-0.0997c3.2278-3.6771 1.7219-9.715 10.935-10.407 5.3173-0.6968 8.597 5.4002 12.174 10.507z" fill="url(#al)" filter="url(#ag)" opacity=".611"/>
   <g fill="#14dff0">
    <circle cx="473.73" cy="728.52" r="3.5355"/>
    <circle cx="519.48" cy="783.63" r="3.5355"/>
    <circle cx="476.21" cy="735.08" r="3.5355"/>
    <circle cx="479.02" cy="741.52" r="3.5355"/>
    <circle cx="481.73" cy="747.96" r="3.5355"/>
    <circle cx="484.49" cy="754.42" r="3.5355"/>
    <circle cx="487.89" cy="760.49" r="3.5355"/>
    <circle cx="491.2" cy="766.62" r="3.5355"/>
    <circle cx="495.41" cy="772.06" r="3.5355"/>
    <circle cx="500.52" cy="776.81" r="3.5355"/>
    <ellipse cx="506.07" cy="781.02" rx="3.6248" ry="3.5355"/>
    <circle cx="512.59" cy="783.7" r="3.5355"/>
    <circle transform="scale(-1,1)" cx="-557.84" cy="728.52" r="3.5355"/>
    <circle transform="scale(-1,1)" cx="-555.36" cy="735.08" r="3.5355"/>
    <circle transform="scale(-1,1)" cx="-552.55" cy="741.52" r="3.5355"/>
    <circle transform="scale(-1,1)" cx="-549.84" cy="747.96" r="3.5355"/>
    <circle transform="scale(-1,1)" cx="-547.08" cy="754.42" r="3.5355"/>
    <circle transform="scale(-1,1)" cx="-543.68" cy="760.49" r="3.5355"/>
    <circle transform="scale(-1,1)" cx="-540.37" cy="766.62" r="3.5355"/>
    <circle transform="scale(-1,1)" cx="-536.16" cy="772.06" r="3.5355"/>
    <circle transform="scale(-1,1)" cx="-531.41" cy="776.81" r="3.5355"/>
    <circle transform="scale(-1,1)" cx="-525.77" cy="780.85" r="3.5355"/>
   </g>
   <g transform="translate(102)" fill="#87e8f0" filter="url(#ai)" opacity=".681">
    <g transform="translate(-102)" fill="#87e8f0">
     <circle cx="473.73" cy="728.52" r="3.5355" opacity="1"/>
     <circle cx="519.48" cy="783.63" r="3.5355" opacity="1"/>
     <circle cx="476.21" cy="735.08" r="3.5355" opacity="1"/>
     <circle cx="479.02" cy="741.52" r="3.5355" opacity="1"/>
     <circle cx="481.73" cy="747.96" r="3.5355" opacity="1"/>
     <circle cx="484.49" cy="754.42" r="3.5355" opacity="1"/>
     <circle cx="487.89" cy="760.49" r="3.5355" opacity="1"/>
     <circle cx="491.2" cy="766.62" r="3.5355" opacity="1"/>
     <circle cx="495.41" cy="772.06" r="3.5355" opacity="1"/>
     <circle cx="500.52" cy="776.81" r="3.5355" opacity="1"/>
     <ellipse cx="506.07" cy="781.02" rx="3.6248" ry="3.5355" opacity="1"/>
     <circle cx="512.59" cy="783.7" r="3.5355" opacity="1"/>
     <circle transform="scale(-1,1)" cx="-557.84" cy="728.52" r="3.5355" opacity="1"/>
     <circle transform="scale(-1,1)" cx="-555.36" cy="735.08" r="3.5355" opacity="1"/>
     <circle transform="scale(-1,1)" cx="-552.55" cy="741.52" r="3.5355" opacity="1"/>
     <circle transform="scale(-1,1)" cx="-549.84" cy="747.96" r="3.5355" opacity="1"/>
     <circle transform="scale(-1,1)" cx="-547.08" cy="754.42" r="3.5355" opacity="1"/>
     <circle transform="scale(-1,1)" cx="-543.68" cy="760.49" r="3.5355" opacity="1"/>
     <circle transform="scale(-1,1)" cx="-540.37" cy="766.62" r="3.5355" opacity="1"/>
     <circle transform="scale(-1,1)" cx="-536.16" cy="772.06" r="3.5355" opacity="1"/>
     <circle transform="scale(-1,1)" cx="-531.41" cy="776.81" r="3.5355" opacity="1"/>
     <circle transform="scale(-1,1)" cx="-525.77" cy="780.85" r="3.5355" opacity="1"/>
    </g>
   </g>
  </g>
 </g>
</svg>
