<?xml version="1.0" encoding="UTF-8"?>
<svg enable-background="new 0 0 1920 2226" version="1.1" viewBox="0 0 1920 2226" xmlns="http://www.w3.org/2000/svg">
 <path d="m974.37 245.48c24.71-7.95 50.71-11.58 76.63-11.99 38.71-0.86 77.29 4.87 114.9 13.75 12.85 2.72 25.32 7 38.13 9.87 25.98 2.38 51.7 7.02 77.16 12.63 40.15 9.07 79.73 21.09 117.52 37.47 37.41 16.48 73.53 37.43 102.63 66.49 12.38 12.59 23.7 26.48 31.74 42.28 9.2 17.91 17.07 36.46 24.5 55.18 8.57 22.51 16.01 45.5 21.18 69.04 3.89 18.66 6.68 37.87 4.43 56.93-1.28 8.39-3.95 16.49-5.16 24.9-4.79 27.78-3.28 56.41 2.73 83.88 8.6 40.33 26.19 77.85 41.35 115.97 7.56 20.05 15.18 40.52 16.71 62.09 0.96 12.07-1.38 24.03-1.92 36.06-2.2 33.49 0.81 67.19 7.63 100.01 5.45 27 12.48 53.68 16.96 80.88 7.72 47.25 5.43 96.73-10.91 141.99-5.61 16.06-13.22 31.33-21.63 46.07-1.67 44.53-5.73 89.01-12.68 133.04-5.56 34.91-12.9 69.59-23.37 103.37-24.97-27.87-52.95-52.89-82.28-76.06-9.77-7.42-19.23-15.33-29.58-21.91-33.56 21.36-68.27 40.84-102.41 61.25-28.91 17.61-58.32 35.46-82 59.97-12.12 12.08-19.33 27.85-29.79 41.2-8.6 11.19-18.43 21.58-29.94 29.81-5.91 3.92-12.19 7.38-18.92 9.67-15.96 5.62-34.05 3.63-48.78-4.52-16.34-8.97-29.44-22.78-40.4-37.66-6.44-8.47-11.55-17.85-17.72-26.5-3.66-4.53-6.75-9.81-11.76-13-1.47-6.97 0.96-13.96 2.67-20.66 3.69-12.54 8.18-24.84 13.24-36.89 10.51-38.07 24.18-75.32 40.71-111.2 10.16-21.75 21.62-42.96 35.32-62.7 10.05-14.31 21.3-27.94 34.78-39.15 8.77-7.32 18.62-13.5 29.4-17.39 4-1.52 8.37-2.04 12.08-4.31-0.57-1.26-1.03-2.45-1.58-3.65 5.68-3.09 10.33-7.98 12.78-14 4.45-9.71 6.12-21.16 14.08-28.9 41.35-39.42 69.57-93.07 75.81-150.09 1.12-10.51 1.8-21.08 1.59-31.65 0.2-25.7 3.22-51.31 2.95-77.01-0.39-14.8-2.14-29.8-7.59-43.66-4.08-9.67-9.04-19.11-16-27.03-0.59-0.74-1.36-1.02-2.31-0.83-6.24-13.85-19.09-22.84-27.94-34.83-7.27-9.39-11.9-20.7-13.6-32.44-1.42-8.35-0.63-16.86-1.69-25.25-2.02-10.18-4.14-20.5-8.93-29.84-4.24-10.42-9.16-20.58-14.61-30.42-10.28-16.97-21.35-33.45-32.11-50.11-9.41-14.72-18.57-29.72-25.15-45.95-4.65-11.63-7.89-24.03-7.65-36.63 0.09-9.01 0.02-18.14-2.27-26.92-3.37-14.69-11.37-27.9-21.32-39.06-12.5-14.5-27.91-26.43-38.71-42.38-15.67-22.72-41.57-36.66-68.17-42.19-12.83-2.81-26.03-2.38-39.07-3.02-26.13-1.14-52.56-0.21-78.14 5.64-25.92 5.84-51.06 16.94-71.14 34.6-14.19 12.51-26.82 27.51-33.58 45.4-9.58 24.47-14.69 50.38-19.94 76.05-4.31 20.63-8.2 41.35-13.24 61.81-5.4 21.92-10.89 43.82-15.7 65.89-6.46 29.34-11.94 59.07-12.85 89.17-0.8 13.98-0.31 27.99-0.44 41.98-0.34 12.37 1.19 24.68 1.88 37.02 1.6 18.57 4.21 37.06 7.95 55.32-1.19 3.5-0.62 7.18-0.32 10.78 0.77 15.13 2.64 30.18 3.95 45.27 3.44 29.95 7.13 59.91 12.83 89.53 2.93 14.77 6.04 29.56 10.93 43.82 7.49 18.24 18.6 34.75 30.47 50.41-35.13 26.62-66.66 57.86-94.35 92.12-13.05-17.01-24.69-35.14-34.24-54.34-18.55-36.77-28.8-77.75-29.2-118.96-0.11-11.4-0.58-22.82-2.07-34.14-5.47-43.32-19.17-84.96-30.44-126.99-7.63-27.49-14.8-55.31-17.29-83.81-1.5-17.75-1.05-35.91 4.07-53.09 7.8-26.42 24.2-49.18 41.89-69.89 18.22-21.88 39.11-42.13 52.17-67.76 7.78-15.43 10.4-32.72 14.01-49.44 7.69-40.06 13.57-80.44 21.42-120.47 4.11-19.19 7.62-38.65 14.71-57.03 2.36-6.35 6.22-12 8.76-18.27 4.52-10.95 8.32-22.18 12.63-33.21 13.3-34.7 30.62-68.54 56.13-95.92 23.58-25.82 54.16-45.02 87.48-55.49z" fill="#603712" stroke="#603712"/>
 <path d="m967.89 445.12c25.58-5.85 52.01-6.78 78.14-5.64 13.04 0.64 26.24 0.21 39.07 3.02 26.6 5.53 52.5 19.47 68.17 42.19 10.8 15.95 26.21 27.88 38.71 42.38 9.95 11.16 17.95 24.37 21.32 39.06 2.29 8.78 2.36 17.91 2.27 26.92-0.24 12.6 3 25 7.65 36.63 6.58 16.23 15.74 31.23 25.15 45.95 10.76 16.66 21.83 33.14 32.11 50.11-3.8-0.36-7.16-2.36-10.8-3.29-23.21-6.85-47.67-7.36-71.68-6.84-24.87 0.99-49.74 3.47-74.19 8.17-0.63 7.64-1.64 15.25-2.41 22.88 26.85-2.11 53.69-4.42 80.54-6.63 10.49-1.01 21.04-1.5 31.5-2.82 9.92-2.77 20.58-3.12 30.5-0.15 11.96 3.26 22.38 10.53 31.15 19.1 4.79 9.34 6.91 19.66 8.93 29.84 1.06 8.39 0.27 16.9 1.69 25.25 1.7 11.74 6.33 23.05 13.6 32.44 8.85 11.99 21.7 20.98 27.94 34.83 4.59 10.13 3.76 21.69 1.59 32.31-5.31 24.49-8.89 49.33-11.87 74.2-2.08 20.44-6.2 40.69-12.8 60.16-5.02 16.26-11.38 32.19-20.19 46.79-6.97 11.83-14.95 23.02-22.69 34.36-4.7 6.53-8.66 13.8-15.03 18.93-3.48 3.2-7.76 5.4-11.09 8.77 0.16 32.93 0.07 65.88 0.05 98.82-40.18 12.85-80.13 26.41-119.85 40.6-42.2 15.13-84.16 30.98-125.46 48.43-32.11 13.71-64.06 28.09-94.15 45.87-10.01 6.1-19.9 12.54-28.64 20.4-4.7 4.32-9.29 9.12-11.8 15.08-4.29 15.22-10.1 29.97-15.06 44.98-4.62 12.93-8.71 26.07-13.66 38.87 1.15-19.76 3.49-39.49 7.92-58.81 2.63-2.44 4.39-5.57 6.17-8.62 6.63-11.03 13.31-22.02 19.85-33.09 4.04-8.84 8.43-17.51 12.67-26.25 2.62-6.47 6.35-12.39 9.42-18.64 7.91-15.39 16.21-30.68 26.33-44.75 1.44-2.73 0.87-6.01 1.15-8.97-0.11-5.59 0.87-11.32-0.72-16.76 1.56-2.8 0.64-6.12 0.71-9.14-0.97-36.07-4.84-72.03-5.08-108.12-3.74-3.84-7.67-7.52-10.95-11.78-6.17-7.49-11.17-15.84-15.86-24.3-5.38-6.86-9.71-14.44-14.14-21.92-10.22-17.59-20.03-35.42-29.73-53.3-10.06-18.69-20.64-37.22-28.02-57.19-6.68-17.21-11.65-35.05-15.49-53.09-3.74-18.26-6.35-36.75-7.95-55.32-0.69-12.34-2.22-24.65-1.88-37.02 0.13-13.99-0.36-28 0.44-41.98 0.91-30.1 6.39-59.83 12.85-89.17 4.81-22.07 10.3-43.97 15.7-65.89 5.04-20.46 8.93-41.18 13.24-61.81 5.25-25.67 10.36-51.58 19.94-76.05 6.76-17.89 19.39-32.89 33.58-45.4 20.08-17.66 45.22-28.76 71.14-34.6m-92.02 205.19c-10.16 1.68-20.33 6.25-26.69 14.61 1.4 4 5.19 6.38 8.88 8.02 10.35-4.62 21.45-8.3 32.94-8.01 12.13-0.23 23.98 4.15 33.69 11.29 16.27 7.89 32.75 15.36 49.11 23.09 17.41 8.03 34.66 16.47 52.18 24.23 1.88-7.43 3.68-14.88 5.62-22.3-14.71-8.96-30.08-16.82-45.66-24.15-19.94-9.27-40.47-17.48-61.81-22.93-15.71-3.8-32.14-6.53-48.26-3.85m22.2 46.52c-11.61 2.71-23.14 6.89-32.89 13.85 6.56 0.98 12.65 3.73 18.72 6.29 0.2 4.23 4.25 6.65 7.39 8.79 10.33 6.12 21.84 9.85 33.2 13.59 10.07 3.06 20.19 6.09 30.48 8.33 8.6 0.08 17.52-1.02 25.88 1.59 5.49 3.38 11.57 5.63 17.37 8.41 4.25 1.81 8.32 4.03 12.69 5.55 1.07-1.62 2.65-3.11 2.8-5.15 0.4-2.01-1.33-3.43-2.53-4.73 0.09-3.17-1.49-6-2.76-8.78-4.55-9.02-10.5-17.26-16.7-25.2-7.02-4.88-14.26-9.49-21.96-13.22-22-10.87-47.64-14.83-71.69-9.32m279.32 60.94c-6.76 3.88-13.23 8.29-19.38 13.09-4.13 3.46-8.61 6.91-11.15 11.79-4.44 0.97-4.54 5.99-2.79 9.34 11.33-0.76 22.72-1.17 33.98-2.49 8.25 1.02 15.81 4.76 23.5 7.67 11.44 1.56 22.97 2.51 34.51 3.13 11.02 0.46 22.16 0.84 33.08-1.1 3.72-0.87 8.39-1.81 10.1-5.7 6.55 0.14 13.19-0.52 19.66 0.89-12.42-17.48-31.07-30.2-51.38-36.76-22.69-7.26-47.36-6.14-70.13 0.14m-265.87 210.09c9.44 6.21 18.14 14.1 23.13 24.43 8.44 16.17 19.09 31.22 31.47 44.61 11.76 12.4 25.63 23.68 42.26 28.6 10.21 3.15 21.02 2.26 31.54 1.94 36.38-2.16 72.66-10.33 105.66-25.99 5.19-2.67 10.75-4.86 15.25-8.66 5.06-4.1 11.7-5.92 18.15-5.83 3.04-0.04 6.06 0.79 9.13 0.44 0.67-2.69-0.18-5.76-3.18-6.38-9.17-2.57-18.7 0.03-27.94 0.73-12.19-0.21-24.55-0.95-36.31-4.37-4.09-1.07-7.54-3.75-11.68-4.6-14.3-3.47-28.57-7.03-43-9.91-7.23-1.71-14.7-1.9-21.94-3.54-21.38-4.13-42.99-7.45-63.98-13.27-8.07-0.76-16.24-1.13-24.08-3.38-10.81-2.94-20.92-8.15-29.97-14.7-4.04-3.49-10.05-1.96-14.51-0.12m323.07 197.72c-20.76 10.97-42.34 20.28-64.18 28.84-20.84 8.04-41.85 15.72-63.35 21.8-10.51 2.89-21.14 6-32.13 6.08-14.33 0.52-28.64 2.13-42.99 1.6-16.61-0.07-33.36-3.82-47.96-11.85-5.57-2.58-10.16-6.79-15.7-9.41-8.99-4.39-17.58-9.54-25.91-15.06-2.51-1.59-4.65-3.83-7.53-4.74 2.6 4.07 6.62 6.92 9.9 10.42 7.64 6.77 15.4 13.45 23.82 19.25 30.58 22.19 67.42 36.83 105.48 37.51 23.31 0.57 46.56-4.17 68.26-12.54 35.18-13.91 66.19-36.78 93.1-63.08 3.45-2.87 6.68-6 9.55-9.45 2.93-3.51 6.67-6.31 9.14-10.19-6.72 3.18-12.87 7.45-19.5 10.82z" fill="#FAB03B" stroke="#FAB03B"/>
 <path d="m875.87 650.31c16.12-2.68 32.55 0.05 48.26 3.85 21.34 5.45 41.87 13.66 61.81 22.93 15.58 7.33 30.95 15.19 45.66 24.15-1.94 7.42-3.74 14.87-5.62 22.3-17.52-7.76-34.77-16.2-52.18-24.23-16.36-7.73-32.84-15.2-49.11-23.09-9.71-7.14-21.56-11.52-33.69-11.29-11.49-0.29-22.59 3.39-32.94 8.01-3.69-1.64-7.48-4.02-8.88-8.02 6.36-8.36 16.53-12.93 26.69-14.61z" fill="#8C6239" stroke="#8C6239"/>
 <path d="m898.07 696.83c24.05-5.51 49.69-1.55 71.69 9.32 7.7 3.73 14.94 8.34 21.96 13.22-1.7 1.45-3.4 2.88-5.11 4.31-6.93-5.13-14.59-9.49-22.96-11.73-7.01-2.21-14.37-2.76-21.6-3.85-2.24-0.2-4.64-0.97-6.74 0.14l0.92-0.91c-17.6-1.18-35.32 2.33-51.93 8.03-0.1 0.4-0.3 1.21-0.4 1.61-6.07-2.56-12.16-5.31-18.72-6.29 9.75-6.96 21.28-11.14 32.89-13.85z" fill="#754C24" stroke="#754C24"/>
 <path d="m884.3 715.36c16.61-5.7 34.33-9.21 51.93-8.03l-0.92 0.91c-3.02 2.78-5.59 6.19-6.57 10.24-2.12 7.26 0.55 15.59 6.45 20.32 6.29 5.36 16.03 5.91 22.96 1.43 9.55-5.64 11.81-19.4 5.5-28.28 8.37 2.24 16.03 6.6 22.96 11.73 7.87 6.03 14.51 13.6 19.7 22.03 1.61 2.54 2.75 5.43 4.87 7.64 1.2 1.3 2.93 2.72 2.53 4.73-0.15 2.04-1.73 3.53-2.8 5.15-4.37-1.52-8.44-3.74-12.69-5.55-5.8-2.78-11.88-5.03-17.37-8.41-8.36-2.61-17.28-1.51-25.88-1.59-10.29-2.24-20.41-5.27-30.48-8.33-11.36-3.74-22.87-7.47-33.2-13.59-3.14-2.14-7.19-4.56-7.39-8.79 0.1-0.4 0.3-1.21 0.4-1.61z" fill="#fff" stroke="#fff"/>
 <path d="m935.31 708.24c2.1-1.11 4.5-0.34 6.74-0.14 7.23 1.09 14.59 1.64 21.6 3.85 6.31 8.88 4.05 22.64-5.5 28.28-6.93 4.48-16.67 3.93-22.96-1.43-5.9-4.73-8.57-13.06-6.45-20.32 0.98-4.05 3.55-7.46 6.57-10.24z" stroke="#000"/>
 <path d="m1123.8 723.78c24.45-4.7 49.32-7.18 74.19-8.17 24.01-0.52 48.47-0.01 71.68 6.84 3.64 0.93 7 2.93 10.8 3.29 5.45 9.84 10.37 20 14.61 30.42-8.77-8.57-19.19-15.84-31.15-19.1-9.92-2.97-20.58-2.62-30.5 0.15-10.46 1.32-21.01 1.81-31.5 2.82-26.85 2.21-53.69 4.52-80.54 6.63 0.77-7.63 1.78-15.24 2.41-22.88z" fill="#8C6239" stroke="#8C6239"/>
 <path d="m991.72 719.37c6.2 7.94 12.15 16.18 16.7 25.2 1.27 2.78 2.85 5.61 2.76 8.78-2.12-2.21-3.26-5.1-4.87-7.64-5.19-8.43-11.83-16-19.7-22.03 1.71-1.43 3.41-2.86 5.11-4.31z" fill="#F15A24" stroke="#F15A24"/>
 <path d="m1177.4 757.77c22.77-6.28 47.44-7.4 70.13-0.14 20.31 6.56 38.96 19.28 51.38 36.76-6.47-1.41-13.11-0.75-19.66-0.89-0.01-0.37-0.02-1.1-0.03-1.47-7.76-6.88-16.55-12.54-25.62-17.53-6.45-3.32-12.99-6.78-20.14-8.33-8.87-2.13-17.71-4.58-26.79-5.61-8.74-0.44-17.55 0.44-25.94 2.96-1.12-1.93-2.23-3.84-3.33-5.75z" fill="#754C24" stroke="#754C24"/>
 <path d="m1158 770.86c6.15-4.8 12.62-9.21 19.38-13.09 1.1 1.91 2.21 3.82 3.33 5.75-9.36 2.78-18.12 7.42-25.9 13.28-2.67 1.93-4.91 4.49-7.96 5.85 2.54-4.88 7.02-8.33 11.15-11.79z" fill="#F15A24" stroke="#F15A24"/>
 <path d="m1180.7 763.52c8.39-2.52 17.2-3.4 25.94-2.96-3.41 2.37-6.37 5.54-7.81 9.5-2.92 7.21-1.08 16.09 4.67 21.38 6.43 6.47 17.5 7.18 24.86 1.9 8.74-5.79 10.77-18.56 5.07-27.17 7.15 1.55 13.69 5.01 20.14 8.33 9.07 4.99 17.86 10.65 25.62 17.53 0.01 0.37 0.02 1.1 0.03 1.47-1.71 3.89-6.38 4.83-10.1 5.7-10.92 1.94-22.06 1.56-33.08 1.1-11.54-0.62-23.07-1.57-34.51-3.13-7.69-2.91-15.25-6.65-23.5-7.67-11.26 1.32-22.65 1.73-33.98 2.49-1.75-3.35-1.65-8.37 2.79-9.34 3.05-1.36 5.29-3.92 7.96-5.85 7.78-5.86 16.54-10.5 25.9-13.28z" fill="#fff" stroke="#fff"/>
 <path d="m1206.7 760.56c9.08 1.03 17.92 3.48 26.79 5.61 5.7 8.61 3.67 21.38-5.07 27.17-7.36 5.28-18.43 4.57-24.86-1.9-5.75-5.29-7.59-14.17-4.67-21.38 1.44-3.96 4.4-7.13 7.81-9.5z" stroke="#000"/>
 <path d="m1347.2 878.52c0.95-0.19 1.72 0.09 2.31 0.83 6.96 7.92 11.92 17.36 16 27.03 5.45 13.86 7.2 28.86 7.59 43.66 0.27 25.7-2.75 51.31-2.95 77.01 0.21 10.57-0.47 21.14-1.59 31.65-6.24 57.02-34.46 110.67-75.81 150.09-7.96 7.74-9.63 19.19-14.08 28.9-2.45 6.02-7.1 10.91-12.78 14l-0.92-1.88c-3.3 0.9-6.54 2.02-9.8 3.05 0.02-32.94 0.11-65.89-0.05-98.82 3.33-3.37 7.61-5.57 11.09-8.77 6.37-5.13 10.33-12.4 15.03-18.93 7.74-11.34 15.72-22.53 22.69-34.36 8.81-14.6 15.17-30.53 20.19-46.79 6.6-19.47 10.72-39.72 12.8-60.16 2.98-24.87 6.56-49.71 11.87-74.2 2.17-10.62 3-22.18-1.59-32.31z" fill="#41200A" stroke="#41200A"/>
 <path d="m810.51 963.14c-0.3-3.6-0.87-7.28 0.32-10.78 3.84 18.04 8.81 35.88 15.49 53.09 7.38 19.97 17.96 38.5 28.02 57.19 9.7 17.88 19.51 35.71 29.73 53.3 4.43 7.48 8.76 15.06 14.14 21.92 4.69 8.46 9.69 16.81 15.86 24.3-15.82 8.91-30.89 19.1-45.38 30.01-11.87-15.66-22.98-32.17-30.47-50.41-4.89-14.26-8-29.05-10.93-43.82-5.7-29.62-9.39-59.58-12.83-89.53-1.31-15.09-3.18-30.14-3.95-45.27z" fill="#41200A" stroke="#41200A"/>
 <path d="m911.52 967.86c4.46-1.84 10.47-3.37 14.51 0.12 9.05 6.55 19.16 11.76 29.97 14.7 7.84 2.25 16.01 2.62 24.08 3.38 20.99 5.82 42.6 9.14 63.98 13.27 7.24 1.64 14.71 1.83 21.94 3.54 14.43 2.88 28.7 6.44 43 9.91 4.14 0.85 7.59 3.53 11.68 4.6 11.76 3.42 24.12 4.16 36.31 4.37 9.24-0.7 18.77-3.3 27.94-0.73 3 0.62 3.85 3.69 3.18 6.38-3.07 0.35-6.09-0.48-9.13-0.44-6.45-0.09-13.09 1.73-18.15 5.83-4.5 3.8-10.06 5.99-15.25 8.66-33 15.66-69.28 23.83-105.66 25.99-10.52 0.32-21.33 1.21-31.54-1.94-16.63-4.92-30.5-16.2-42.26-28.6-12.38-13.39-23.03-28.44-31.47-44.61-4.99-10.33-13.69-18.22-23.13-24.43m33.51 22c10.81 19.92 27.03 37.25 47.36 47.6 19.19 9.97 41.11 13.71 62.59 13.3 24.8-0.51 49.32-5.95 72.61-14.29 6.24-2.49 12.85-4.38 18.55-7.99-68.04-6.48-135.63-18.93-201.11-38.62z" fill="#F15A24" stroke="#F15A24"/>
 <path d="m945.03 989.86c65.48 19.69 133.07 32.14 201.11 38.62-5.7 3.61-12.31 5.5-18.55 7.99-23.29 8.34-47.81 13.78-72.61 14.29-21.48 0.41-43.4-3.33-62.59-13.3-20.33-10.35-36.55-27.68-47.36-47.6z" fill="#fff" stroke="#fff"/>
 <path d="m1234.6 1165.6c6.63-3.37 12.78-7.64 19.5-10.82-2.47 3.88-6.21 6.68-9.14 10.19-2.87 3.45-6.1 6.58-9.55 9.45-26.91 26.3-57.92 49.17-93.1 63.08-21.7 8.37-44.95 13.11-68.26 12.54-38.06-0.68-74.9-15.32-105.48-37.51-8.42-5.8-16.18-12.48-23.82-19.25-3.28-3.5-7.3-6.35-9.9-10.42 2.88 0.91 5.02 3.15 7.53 4.74 8.33 5.52 16.92 10.67 25.91 15.06 5.54 2.62 10.13 6.83 15.7 9.41 14.6 8.03 31.35 11.78 47.96 11.85 14.35 0.53 28.66-1.08 42.99-1.6 10.99-0.08 21.62-3.19 32.13-6.08 21.5-6.08 42.51-13.76 63.35-21.8 21.84-8.56 43.42-17.87 64.18-28.84z" fill="#F7931E" stroke="#F7931E"/>
 <path d="m868.69 1192.2c14.49-10.91 29.56-21.1 45.38-30.01 3.28 4.26 7.21 7.94 10.95 11.78 0.24 36.09 4.11 72.05 5.08 108.12-0.07 3.02 0.85 6.34-0.71 9.14-35.65 46.26-62.14 99.96-74.87 157.08-4.43 19.32-6.77 39.05-7.92 58.81 4.95-12.8 9.04-25.94 13.66-38.87 4.96-15.01 10.77-29.76 15.06-44.98 2.51-5.96 7.1-10.76 11.8-15.08 8.74-7.86 18.63-14.3 28.64-20.4 30.09-17.78 62.04-32.16 94.15-45.87 41.3-17.45 83.26-33.3 125.46-48.43 39.72-14.19 79.67-27.75 119.85-40.6 3.26-1.03 6.5-2.15 9.8-3.05l0.92 1.88c0.55 1.2 1.01 2.39 1.58 3.65-3.71 2.27-8.08 2.79-12.08 4.31-10.78 3.89-20.63 10.07-29.4 17.39-13.48 11.21-24.73 24.84-34.78 39.15-13.7 19.74-25.16 40.95-35.32 62.7-16.53 35.88-30.2 73.13-40.71 111.2-5.06 12.05-9.55 24.35-13.24 36.89-1.71 6.7-4.14 13.69-2.67 20.66-30.13 9.45-60.66 17.65-91.42 24.79-1.62 0.26-3.25 0.91-4.89 0.57-16.75-3.66-33.35-8.03-50.04-11.96-33.02-8.59-66.04-17.16-98.92-26.3-2.4-0.7-4.83-1.47-7.35-1.31-6.8 0.48-13.43-1.6-19.41-4.66-12.41-7.09-20.81-19.34-27.2-31.8-2.61-5.21-4.99-10.55-6.86-16.07-0.73-2.11-1.41-4.41-3.33-5.74-12.6-10.33-24.71-21.33-35.38-33.66-7.73-9.02-14.83-18.84-19.02-30.04-2.86-7.76-4-16.73-0.51-24.47 1.62-4.09 4.91-7.1 8.05-10.03-6.16-0.5-10.89 4.15-14.83 8.24-11.08 12.38-19.45 26.86-27.72 41.19-17.4 30.77-32.23 62.88-46.98 94.97 0.13-5.27 2.88-9.94 3.93-15.02 1.91-8.76 5.75-16.93 7.89-25.62 3.58-7.56 5.92-15.66 9.22-23.36 23-58.02 53.38-113.27 91.58-162.7 2.7-3.49 5.42-6.96 8.21-10.37 27.69-34.26 59.22-65.5 94.35-92.12z" fill="#F2F2F2" stroke="#F2F2F2"/>
 <path d="m854.52 1448.3c12.73-57.12 39.22-110.82 74.87-157.08 1.59 5.44 0.61 11.17 0.72 16.76-0.28 2.96 0.29 6.24-1.15 8.97-10.12 14.07-18.42 29.36-26.33 44.75-3.07 6.25-6.8 12.17-9.42 18.64-4.24 8.74-8.63 17.41-12.67 26.25-6.54 11.07-13.22 22.06-19.85 33.09-1.78 3.05-3.54 6.18-6.17 8.62z" fill="#F7931E" stroke="#F7931E"/>
 <path d="m634.82 1310.8c41.29-17.25 87.14-20.73 131.31-16.1-38.2 49.43-68.58 104.68-91.58 162.7-3.3 7.7-5.64 15.8-9.22 23.36-29.79 23.63-58.82 48.2-87.8 72.83-29.77 25.47-59.23 51.32-88.12 77.8-30.04 27.59-59.62 55.73-87.58 85.44-13.27 14.16-26.18 28.68-38.07 44.02-7.77 10.09-15.17 20.56-20.9 31.97-3.57 7.44-6.8 15.65-5.4 24.07-10.81 16.91-19.06 35.29-26.68 53.82-21.95 55.07-35.38 113.22-43.85 171.79-1.07 7.53-2.2 15.06-2.95 22.64-6.66 53.35-8.82 107.17-8.48 160.9h-120.65c13.09-87.93 27.55-175.66 44.15-263 16.83-87.74 35.14-175.31 59.65-261.27 11.35-38.72 23.55-77.42 41.24-113.79 7.4-14.19 15.24-28.87 27.59-39.38 34-2.53 68.08-5.48 101.74-11.22 18.43-3.28 36.93-6.95 54.48-13.61 7.19-2.97 14.63-6.21 20.01-12.02 3.87-4.03 4.22-9.91 5.93-14.96 12.13-43.92 30.98-86.66 60.08-122.06 22.66-27.75 51.89-50.28 85.1-63.93z" fill="#393848" stroke="#393848"/>
 <path d="m728.21 1385.2c3.94-4.09 8.67-8.74 14.83-8.24-3.14 2.93-6.43 5.94-8.05 10.03-3.49 7.74-2.35 16.71 0.51 24.47 4.19 11.2 11.29 21.02 19.02 30.04 10.67 12.33 22.78 23.33 35.38 33.66 1.92 1.33 2.6 3.63 3.33 5.74 1.87 5.52 4.25 10.86 6.86 16.07 6.39 12.46 14.79 24.71 27.2 31.8-5.82-0.75-10.68-4.47-15.08-8.07-12.19-10.81-19.15-26-24.67-41-8.26-0.66-14.6-6.59-20.43-11.86-9.98-9.65-18.77-20.5-26.84-31.77-2.44 1.57-4.28 3.84-6.23 5.96-22.27 23.07-44.53 46.14-66.76 69.24-5.1 4.87-9.46 10.58-15.07 14.89 0.4-1.66 0.87-3.2 1.3-4.8 14.75-32.09 29.58-64.2 46.98-94.97 8.27-14.33 16.64-28.81 27.72-41.19z" fill="#B3B3B3" stroke="#B3B3B3"/>
 <path d="m1378.6 1488.7c34.14-20.41 68.85-39.89 102.41-61.25 10.35 6.58 19.81 14.49 29.58 21.91 29.33 23.17 57.31 48.19 82.28 76.06 14.08 15.75 27.23 32.37 38.87 50.02 16.42 25.07 30.02 52.37 36.99 81.65 3.77 16.29 5.85 33.36 2.8 49.95 0.42 7.08 2.32 13.98 3.95 20.88 6.67 26.21 14.81 52.02 22.91 77.82 8.49 26.61 17.17 53.16 26.15 79.61 1.11 3.07 2.92 5.82 4.33 8.77 4.94 10.37 8.23 21.46 10.44 32.72 4.91 25.76 4.83 52.18 2.79 78.24-1.95 23.28-5.55 46.42-10.77 69.2-1.88 12.05-1.22 24.31-1.01 36.46 1.38 38.51 4.74 76.92 8.27 115.29h-484.39c-26.64-121.36-36.81-245.95-35.25-370.06 0.93-72.51 5.82-144.99 15.37-216.9 0.8-6.47 2.16-12.88 2.55-19.39 11.51-8.23 21.34-18.62 29.94-29.81 10.46-13.35 17.67-29.12 29.79-41.2 23.68-24.51 53.09-42.36 82-59.97z" fill="#393848" stroke="#393848"/>
 <path d="m734.04 1442c1.95-2.12 3.79-4.39 6.23-5.96 8.07 11.27 16.86 22.12 26.84 31.77 5.83 5.27 12.17 11.2 20.43 11.86 5.52 15 12.48 30.19 24.67 41 4.4 3.6 9.26 7.32 15.08 8.07 5.98 3.06 12.61 5.14 19.41 4.66 13.68 8.26 27.89 15.66 42.31 22.56 12.18 5.66 24.55 11.18 37.63 14.43 4.25 1.22 8.74 0.98 13.04 1.99-9.88 8.62-19.65 17.41-28.89 26.72-20.64 0.9-40.95 5.43-60.7 11.27-40.62 12.28-78.94 31.34-114.72 54-60.83 38.77-114.37 88.07-161.98 142.04-26.42 29.9-50.88 61.47-74.11 93.89-27.63 30.4-53.18 62.71-76.35 96.64-24.42 36.13-46.56 74.17-61.76 115.17l-0.16-0.09c-34.39-18.67-66.45-41.81-94.08-69.59 8.47-58.57 21.9-116.72 43.85-171.79 7.62-18.53 15.87-36.91 26.68-53.82-1.4-8.42 1.83-16.63 5.4-24.07 5.73-11.41 13.13-21.88 20.9-31.97 11.89-15.34 24.8-29.86 38.07-44.02 27.96-29.71 57.54-57.85 87.58-85.44 28.89-26.48 58.35-52.33 88.12-77.8 28.98-24.63 58.01-49.2 87.8-72.83-2.14 8.69-5.98 16.86-7.89 25.62-1.05 5.08-3.8 9.75-3.93 15.02-0.43 1.6-0.9 3.14-1.3 4.8 5.61-4.31 9.97-10.02 15.07-14.89 22.23-23.1 44.49-46.17 66.76-69.24z" fill="#E6E6E6" stroke="#E6E6E6"/>
 <path d="m846.7 1533.4c2.52-0.16 4.95 0.61 7.35 1.31 32.88 9.14 65.9 17.71 98.92 26.3-2.64 2.66-5.56 5.02-8.37 7.51-1.58 1.35-3.27 2.59-4.92 3.86-4.3-1.01-8.79-0.77-13.04-1.99-13.08-3.25-25.45-8.77-37.63-14.43-14.42-6.9-28.63-14.3-42.31-22.56z" fill="#B3B3B3" stroke="#B3B3B3"/>
 <path d="m1007.9 1572.4c30.76-7.14 61.29-15.34 91.42-24.79 5.01 3.19 8.1 8.47 11.76 13-36.72 9.94-73.37 20.19-110.05 30.33-1.64 0.39-3.41 0.85-5 0.08-17.19-7.38-34.08-15.48-51.43-22.5 2.81-2.49 5.73-4.85 8.37-7.51 16.69 3.93 33.29 8.3 50.04 11.96 1.64 0.34 3.27-0.31 4.89-0.57z" fill="#292732" stroke="#292732"/>
 <path d="m1001 1591c36.68-10.14 73.33-20.39 110.05-30.33 6.17 8.65 11.28 18.03 17.72 26.5 10.96 14.88 24.06 28.69 40.4 37.66 14.73 8.15 32.82 10.14 48.78 4.52-2.76 51.75-7.19 103.39-11.58 155.03-12.79 144.66-27.11 289.19-41.68 433.69-0.27 2.64-0.59 5.29-0.9 7.96h-815.72c-4.07-16.98-4.37-34.7-2.42-51.99l0.03-0.28c6.77 4.76 14.27 8.29 21.66 11.96 18.26 9.42 37.83 16.02 57.63 21.34 29.95 7.86 60.72 12.25 91.57 14.42 7.46 0.86 15 0.37 22.46 1.43 20.33 0.39 40.67 0.09 61 0.13 5.65-0.21 11.24-1.31 16.92-0.97 69.99-3.74 139.52-14.39 208.05-29.03 18.78-4.23 37.6-8.37 56.13-13.66-5.42-0.68-10.73 1.06-16.09 1.56-35.84 4.99-71.9 8.24-108.01 10.08-6.36-0.13-12.71 0.1-19.03 0.82-16.32 0.22-32.64 0.21-48.96 0.09-8.38 0.28-16.67-1.41-25.05-0.96-69.6-3.35-139.16-14.5-205.41-36.54-33.65-11.13-66.43-25-97.41-42.26 15.2-41 37.34-79.04 61.76-115.17 23.17-33.93 48.72-66.24 76.35-96.64 23.23-32.42 47.69-63.99 74.11-93.89 47.61-53.97 101.15-103.27 161.98-142.04 35.78-22.66 74.1-41.72 114.72-54 19.75-5.84 40.06-10.37 60.7-11.27 9.24-9.31 19.01-18.1 28.89-26.72 1.65-1.27 3.34-2.51 4.92-3.86 17.35 7.02 34.24 15.12 51.43 22.5 1.59 0.77 3.36 0.31 5-0.08z" fill="#393848" stroke="#393848"/>
 <path d="m1218 1629.3c6.73-2.29 13.01-5.75 18.92-9.67-0.39 6.51-1.75 12.92-2.55 19.39-9.55 71.91-14.44 144.39-15.37 216.9-1.56 124.11 8.61 248.7 35.25 370.06h-90.41c0.31-2.67 0.63-5.32 0.9-7.96 14.57-144.5 28.89-289.03 41.68-433.69 4.39-51.64 8.82-103.28 11.58-155.03z" fill="#292732" stroke="#292732"/>
 <path d="m266.93 2042.5c27.63 27.78 59.69 50.92 94.08 69.59-7.07 19.99-13 40.53-15.3 61.68l-0.03 0.28c-28.81-17.76-53.13-43.17-68.13-73.62-5.78-11.24-9.88-23.23-13.57-35.29 0.75-7.58 1.88-15.11 2.95-22.64z" fill="#78777C" stroke="#78777C"/>
 <path d="m255.5 2226c-0.34-53.73 1.82-107.55 8.48-160.9 3.69 12.06 7.79 24.05 13.57 35.29 15 30.45 39.32 55.86 68.13 73.62-1.95 17.29-1.65 35.01 2.42 51.99h-92.6z" fill="#E6E6E6" stroke="#E6E6E6"/>
 <path d="m361.01 2112l0.16 0.09c30.98 17.26 63.76 31.13 97.41 42.26 66.25 22.04 135.81 33.19 205.41 36.54 8.38-0.45 16.67 1.24 25.05 0.96 16.32 0.12 32.64 0.13 48.96-0.09 6.32-0.72 12.67-0.95 19.03-0.82 36.11-1.84 72.17-5.09 108.01-10.08 5.36-0.5 10.67-2.24 16.09-1.56-18.53 5.29-37.35 9.43-56.13 13.66-68.53 14.64-138.06 25.29-208.05 29.03-5.68-0.34-11.27 0.76-16.92 0.97-20.33-0.04-40.67 0.26-61-0.13-7.46-1.06-15-0.57-22.46-1.43-30.85-2.17-61.62-6.56-91.57-14.42-19.8-5.32-39.37-11.92-57.63-21.34-7.39-3.67-14.89-7.2-21.66-11.96 2.3-21.15 8.23-41.69 15.3-61.68z" fill="#312F3D" stroke="#312F3D"/>
</svg>
